# xmcd
#
# Track frame offsets: 
#        150
#        13318
#        27171
#        38392
#        49093
#
# Disc length: 931 seconds
#
# Revision: 0
# Processed by: cddbd v1.5.2PL0 Copyright (c) Steve Scherf et al.
# Submitted via: ExactAudioCopy v0.95b4
#
DISCID=3203a105
DTITLE=Kelly Wiilis  - Fading Fast
DYEAR=1900
DGENRE=Country
TTITLE0=Fading Fast
TTITLE1=What World Are You Living In?
TTITLE2=He Don't Care
TTITLE3=Aren't I True
TTITLE4=Rex's Blues
EXTD=
EXTT0=
EXTT1=
EXTT2=
EXTT3=
EXTT4=
PLAYORDER=
